<?xml version="1.0" encoding="iso-8859-1"?>
<!-- Uploaded to: SVG Repo, www.svgrepo.com, Generator: SVG Repo Mixer Tools -->
<svg height="800px" width="800px" version="1.1" id="Layer_1" xmlns="http://www.w3.org/2000/svg" xmlns:xlink="http://www.w3.org/1999/xlink" 
	 viewBox="0 0 512 512" xml:space="preserve">
<path style="fill:#F2BA43;" d="M444.324,315.71c0,103.694-84.061,168.189-187.756,168.189S68.815,419.405,68.815,315.71
	s84.06-187.755,187.755-187.755S444.324,212.016,444.324,315.71z"/>
<g>
	<path style="fill:#EA9000;" d="M444.324,315.71c0,103.694-84.06,187.755-187.755,187.755S68.815,419.405,68.815,315.71H444.324z"/>
	<path style="fill:#EA9000;" d="M424.758,315.71c0,92.888-75.301,158.239-168.189,158.239S88.38,408.598,88.38,315.71
		s75.301-168.189,168.189-168.189S424.758,222.822,424.758,315.71z"/>
</g>
<path style="fill:#F2BA43;" d="M424.758,315.71c0,92.888-75.301,168.189-168.189,168.189S88.38,408.598,88.38,315.71H424.758z"/>
<circle style="fill:#E6E7E8;" cx="256.565" cy="315.707" r="150.115"/>
<circle style="fill:#D1D3D4;" cx="256.565" cy="315.707" r="122.746"/>
<path d="M267.203,119.747v-18.833c41.344-2.581,72.607-23.756,72.607-50.324c0-28.368-35.641-50.59-81.142-50.59
	s-81.144,22.222-81.144,50.59c0,26.568,31.265,47.743,72.609,50.324v18.601C144.603,122.63,59.71,209.439,59.71,315.71
	c0,108.234,88.056,196.29,196.29,196.29c108.235,0,196.291-88.056,196.291-196.29C452.291,211.236,370.245,125.574,267.203,119.747z
	 M194.596,50.59c0-16.188,25.746-33.52,64.072-33.52s64.072,17.332,64.072,33.52c0,14.953-21.977,30.871-55.537,33.215V81.78
	c0-4.715-3.82-8.535-8.535-8.535s-8.535,3.82-8.535,8.535v2.026C216.574,81.462,194.596,65.544,194.596,50.59z M256.001,494.93
	c-98.823,0-179.22-80.397-179.22-179.22c0-96.858,77.237-176.006,173.353-179.114v2.39c0,4.715,3.82,8.535,8.535,8.535
	s8.535-3.82,8.535-8.535v-2.135c93.623,5.804,168.018,83.801,168.018,178.859C435.221,414.533,354.823,494.93,256.001,494.93z"/>
<path d="M371,206.421c-3.248-3.42-8.651-3.554-12.066-0.306c-3.417,3.248-3.554,8.65-0.306,12.066
	c25.116,26.422,38.95,61.058,38.95,97.529c0,78.066-63.512,141.578-141.578,141.578S114.423,393.776,114.423,315.71
	s63.511-141.578,141.576-141.578c18.984,0,37.408,3.693,54.76,10.976c4.346,1.825,9.35-0.219,11.172-4.567
	c1.825-4.346-0.22-9.349-4.567-11.173c-19.455-8.165-40.101-12.305-61.366-12.305c-87.478,0-158.647,71.169-158.647,158.648
	s71.169,158.648,158.647,158.648c87.479,0,158.648-71.169,158.648-158.648C414.648,274.842,399.148,236.029,371,206.421z"/>
<circle cx="255.996" cy="413.633" r="10.146"/>
<path d="M375.48,315.71c0-4.715-3.82-8.535-8.535-8.535H260.188l-71.04-91.845c-2.886-3.728-8.244-4.414-11.973-1.529
	c-3.728,2.884-4.413,8.245-1.529,11.973l56.132,72.572l-48.879-16.824c-4.459-1.535-9.315,0.835-10.849,5.292
	c-1.534,4.458,0.835,9.315,5.292,10.849l75.84,26.106c0.949,0.264,1.842,0.469,2.836,0.478h110.926
	C371.659,324.245,375.48,320.424,375.48,315.71z"/>
</svg>